<svg xmlns="http://www.w3.org/2000/svg" style="width:0; height:0; visibility:hidden;">
    <symbol id="index_calendar" viewBox="0 0 40 40">
       <g> <rect x="10" y="5" fill="#231815" width="3" height="6"/> <rect x="27" y="5" fill="#231815" width="3" height="6"/> <path fill="#231815" d="M32,8v5h-7V8H15v5H8V8H4v26h32V8H32z"/> <rect x="7" y="17" fill="#FFFFFF" width="26" height="2"/> <rect x="7" y="22" fill="#FFFFFF" width="26" height="2"/> </g>
    </symbol>
    <symbol id="index_cloud" viewBox="0 0 40 40">
       <g> <path fill="#231815" d="M25.8,6c-4.9,0-9.1,2.8-11,6.9c-1.1-0.5-2.3-0.6-3.6-0.6c-5.1,0-9.2,3.9-9.2,8.8c0,4.1,2.9,7.4,6.8,8.4
		L17.5,17l8.7,12.5C32.8,29.3,38,24.3,38,17.9C38,11.3,32.6,6,25.8,6z"/> <polygon fill="#231815" points="22.1,30 17.5,23.2 13,30 15,30 15,34 20,34 20,30 	"/> </g>
    </symbol>
    <symbol id="index_download" viewBox="0 0 40 40">
       <g> <polygon fill="#231815" points="33,23 33,34 7,34 7,23 4,23 4,34 4,37 7,37 33,37 36,37 36,34 36,23 	"/> <polygon fill="#231815" points="10.1,20.1 20,30 30,20.1 24,20.1 24,12 30,12 20,2.1 10.1,12 16,12 16,20.1 	"/> </g>
    </symbol>
    <symbol id="index_drawer" viewBox="0 0 40 40">
       <g> <path fill="#231815" d="M35,10h-2v15h-6.9c0,3-2.5,4.9-5.6,4.9S14.9,28,14.9,25H8V10H6L3,23.4V36h35V23.4L35,10z"/> <path fill="#231815" d="M30,4H11v17h19V4z M27,15H14v-2h13V15z M27,10H14V8h13V10z"/> </g>
    </symbol>
    <symbol id="index_heart" viewBox="0 0 40 40">
       <path fill="#231815" d="M25.9,4c-3,0-4.7,1.1-5.9,2.7C18.7,5.1,17,4,14.1,4C8,4,3,8.7,3,14.6c0,1.6,0.5,3.9,1.4,5.3
	c3.3,4.6,13.6,15.1,14,15.5c0.4,0.4,0.9,0.6,1.5,0.6c0.6,0,1.1-0.2,1.5-0.6c0.4-0.4,10.8-10.9,14-15.5c1-1.4,1.4-3.7,1.4-5.3
	C37,8.7,32,4,25.9,4L25.9,4z"/> 
    </symbol>
    <symbol id="index_input" viewBox="0 0 40 40">
       <g> <path fill="#231815" d="M37,6c-1.3-1.3-3.4-1.4-4.8,0l4.8,4.8C38.4,9.4,38.3,7.4,37,6z"/> <polygon fill="#231815" points="24.8,22.9 34.5,13.3 29.7,8.5 20,18.1 	"/> <polygon fill="#231815" points="15,27.9 22.4,25.3 17.6,20.5 	"/> <polygon fill="#231815" points="35,19.4 35,31 5,31 5,8 23.6,8 27,5 5.4,5 2,5 2,8.4 2,30.6 2,34 5.4,34 34.6,34 38,34 38,30.6
		38,15.9 	"/> </g> 
    </symbol>
    <symbol id="index_magnifier" viewBox="0 0 40 40">
       <path fill="#231815" d="M37.1,32.3l-5.5-5.5c-0.6-0.6-1.4-0.9-2.2-0.9c1.7-2.4,2.7-5.3,2.7-8.4c0-8-6.5-14.5-14.5-14.5
	S3.1,9.5,3.1,17.5S9.6,32,17.6,32c3.3,0,6.4-1.2,8.9-3.1c0,0.8,0.3,1.5,0.9,2.1l5.5,5.5c0.6,0.6,1.4,0.9,2.1,0.9s1.5-0.3,2.1-0.9
	C38.3,35.4,38.3,33.5,37.1,32.3z M17.6,29c-6.3,0-11.5-5.2-11.5-11.5S11.3,6,17.6,6s11.5,5.2,11.5,11.5S24,29,17.6,29z"/> 
    </symbol>
    <symbol id="index_pencil" viewBox="0 0 40 40">
       <g> <polygon fill="#231815" points="10,21.3 10,25.5 18.3,34 22.6,34 32.5,24.1 19.8,11.4 	"/> <path fill="#231815" d="M36.7,14.2l-7.1-7.1c-1.6-1.6-4.1-1.6-5.6,0L21.2,10l12.7,12.7l2.8-2.8C38.3,18.3,38.3,15.8,36.7,14.2z"/> <polygon fill="#231815" points="10,32 2,32 2,34 9.9,34 9.9,34 15.5,34 10,28.4 	"/> </g>
    </symbol>
    <symbol id="index_sapling" viewBox="0 0 40 40">
       <path fill="#231815" d="M37.7,9.9c-4.3-1-9,0.3-12.3,3.7c-1.7,1.7-2.8,3.8-3.4,6c-0.6-3.2-2.1-6.3-4.5-8.7C13.4,6.7,7.6,5.2,2.4,6.4
	C1.2,11.8,2.7,17.8,6.8,22c3.6,3.7,8.5,5.3,13.2,4.9V34h3v-7.3c3.9,0.4,8.1-0.9,11.1-4C37.4,19.2,38.6,14.4,37.7,9.9z"/> 
    </symbol>
    <symbol id="index_school" viewBox="0 0 40 40">
       <g> <path fill="#231815" d="M26.9,13.3c0.3,0,0.6-0.2,0.6-0.6V9.1c0-0.3-0.2-0.6-0.6-0.6s-0.6,0.2-0.6,0.6v3.7
		C26.4,13.1,26.6,13.3,26.9,13.3z"/> <path fill="#231815" d="M34.8,4H19c-1.8,0-3,1.4-3,3.2V36h22V7.2C38,5.4,36.6,4,34.8,4z M26.9,7.1c3.1,0,5.6,2.5,5.6,5.6
		c0,3.1-2.5,5.6-5.6,5.6s-5.6-2.5-5.6-5.6C21.3,9.7,23.8,7.1,26.9,7.1z M35,31H19v-2h16V31z M35,26H19v-2h16V26z"/> <path fill="#231815" d="M2,22.4V36h11v-5H6v-2h7v-3H6v-2h7v-5H5.2C3.4,19,2,20.6,2,22.4z"/> </g>
    </symbol>
    <symbol id="index_tutor" viewBox="0 0 40 40">
       <g> <path fill="#231815" d="M27.2,25.4l-3.6-2.9c-2.1,1.8-4.9,2.9-7.9,2.9c-3,0-5.8-1.1-7.9-2.9l-3.5,2.9L3,35h25.4L27.2,25.4
		L27.2,25.4z"/> <path fill="#231815" d="M36.1,23.8L36.1,23.8l-2.6-2.1c-1,0.9-2.3,1.5-3.6,1.8l0.4,0.3l0.7,4.6l0.3,2.4H37L36.1,23.8z"/> <path fill="#231815" d="M27.2,21.2c0.2,0,0.4,0.1,0.6,0.1c3.6,0,6.5-2.9,6.5-6.5s-2.9-6.5-6.5-6.5c-0.2,0-0.4,0-0.7,0.1
		c0.6,1.4,0.9,3,0.9,4.6c0,2.7-0.9,5.1-2.4,7.1L27.2,21.2z"/> <circle fill="#231815" cx="15.7" cy="13" r="9"/> </g>
    </symbol>
    <symbol id="index_up" viewBox="0 0 40 40">
       <g> <rect x="6" y="29" fill="#231815" width="5" height="8"/> <rect x="14" y="23" fill="#231815" width="5" height="14"/> <rect x="22" y="17" fill="#231815" width="5" height="20"/> <rect x="30" y="11" fill="#231815" width="5" height="26"/> <polygon fill="#231815" points="15.3,10.7 3,22.9 5.1,25.1 17.2,13 26,13 26.3,12.8 33.5,5.6 34.9,7 35,7 35,2 30,2 30,2.1
		31.4,3.5 24.9,10 16,10 	"/> </g> 
    </symbol></svg>