<?xml version="1.0" encoding="utf-8"?>
<!-- Generator: Adobe Illustrator 18.0.0, SVG Export Plug-In . SVG Version: 6.00 Build 0)  -->
<!DOCTYPE svg PUBLIC "-//W3C//DTD SVG 1.1//EN" "http://www.w3.org/Graphics/SVG/1.1/DTD/svg11.dtd">
<svg version="1.1" id="图层_1" xmlns="http://www.w3.org/2000/svg" xmlns:xlink="http://www.w3.org/1999/xlink" x="0px" y="0px"
	 viewBox="0 0 40 40" enable-background="new 0 0 40 40" xml:space="preserve">
<path fill="#231815" d="M37.1,32.3l-5.5-5.5c-0.6-0.6-1.4-0.9-2.2-0.9c1.7-2.4,2.7-5.3,2.7-8.4c0-8-6.5-14.5-14.5-14.5
	S3.1,9.5,3.1,17.5S9.6,32,17.6,32c3.3,0,6.4-1.2,8.9-3.1c0,0.8,0.3,1.5,0.9,2.1l5.5,5.5c0.6,0.6,1.4,0.9,2.1,0.9s1.5-0.3,2.1-0.9
	C38.3,35.4,38.3,33.5,37.1,32.3z M17.6,29c-6.3,0-11.5-5.2-11.5-11.5S11.3,6,17.6,6s11.5,5.2,11.5,11.5S24,29,17.6,29z"/>
</svg>
