<?xml version="1.0" encoding="utf-8"?>
<!-- Generator: Adobe Illustrator 18.0.0, SVG Export Plug-In . SVG Version: 6.00 Build 0)  -->
<!DOCTYPE svg PUBLIC "-//W3C//DTD SVG 1.1//EN" "http://www.w3.org/Graphics/SVG/1.1/DTD/svg11.dtd">
<svg version="1.1" id="图层_1" xmlns="http://www.w3.org/2000/svg" xmlns:xlink="http://www.w3.org/1999/xlink" x="0px" y="0px"
	 viewBox="0 0 40 40" enable-background="new 0 0 40 40" xml:space="preserve">
<path fill="#231815" d="M25.9,4c-3,0-4.7,1.1-5.9,2.7C18.7,5.1,17,4,14.1,4C8,4,3,8.7,3,14.6c0,1.6,0.5,3.9,1.4,5.3
	c3.3,4.6,13.6,15.1,14,15.5c0.4,0.4,0.9,0.6,1.5,0.6c0.6,0,1.1-0.2,1.5-0.6c0.4-0.4,10.8-10.9,14-15.5c1-1.4,1.4-3.7,1.4-5.3
	C37,8.7,32,4,25.9,4L25.9,4z"/>
</svg>
