<?xml version="1.0" encoding="utf-8"?>
<!-- Generator: Adobe Illustrator 18.0.0, SVG Export Plug-In . SVG Version: 6.00 Build 0)  -->
<!DOCTYPE svg PUBLIC "-//W3C//DTD SVG 1.1//EN" "http://www.w3.org/Graphics/SVG/1.1/DTD/svg11.dtd">
<svg version="1.1" id="图层_1" xmlns="http://www.w3.org/2000/svg" xmlns:xlink="http://www.w3.org/1999/xlink" x="0px" y="0px"
	 viewBox="0 0 40 40" enable-background="new 0 0 40 40" xml:space="preserve">
<g>
	<path fill="#231815" d="M26.9,13.3c0.3,0,0.6-0.2,0.6-0.6V9.1c0-0.3-0.2-0.6-0.6-0.6s-0.6,0.2-0.6,0.6v3.7
		C26.4,13.1,26.6,13.3,26.9,13.3z"/>
	<path fill="#231815" d="M34.8,4H19c-1.8,0-3,1.4-3,3.2V36h22V7.2C38,5.4,36.6,4,34.8,4z M26.9,7.1c3.1,0,5.6,2.5,5.6,5.6
		c0,3.1-2.5,5.6-5.6,5.6s-5.6-2.5-5.6-5.6C21.3,9.7,23.8,7.1,26.9,7.1z M35,31H19v-2h16V31z M35,26H19v-2h16V26z"/>
	<path fill="#231815" d="M2,22.4V36h11v-5H6v-2h7v-3H6v-2h7v-5H5.2C3.4,19,2,20.6,2,22.4z"/>
</g>
</svg>
