<?xml version="1.0" encoding="utf-8"?>
<!-- Generator: Adobe Illustrator 18.0.0, SVG Export Plug-In . SVG Version: 6.00 Build 0)  -->
<!DOCTYPE svg PUBLIC "-//W3C//DTD SVG 1.1//EN" "http://www.w3.org/Graphics/SVG/1.1/DTD/svg11.dtd">
<svg version="1.1" id="图层_1" xmlns="http://www.w3.org/2000/svg" xmlns:xlink="http://www.w3.org/1999/xlink" x="0px" y="0px"
	 viewBox="0 0 40 40" enable-background="new 0 0 40 40" xml:space="preserve">
<g>
	<path fill="#231815" d="M27.2,25.4l-3.6-2.9c-2.1,1.8-4.9,2.9-7.9,2.9c-3,0-5.8-1.1-7.9-2.9l-3.5,2.9L3,35h25.4L27.2,25.4
		L27.2,25.4z"/>
	<path fill="#231815" d="M36.1,23.8L36.1,23.8l-2.6-2.1c-1,0.9-2.3,1.5-3.6,1.8l0.4,0.3l0.7,4.6l0.3,2.4H37L36.1,23.8z"/>
	<path fill="#231815" d="M27.2,21.2c0.2,0,0.4,0.1,0.6,0.1c3.6,0,6.5-2.9,6.5-6.5s-2.9-6.5-6.5-6.5c-0.2,0-0.4,0-0.7,0.1
		c0.6,1.4,0.9,3,0.9,4.6c0,2.7-0.9,5.1-2.4,7.1L27.2,21.2z"/>
	<circle fill="#231815" cx="15.7" cy="13" r="9"/>
</g>
</svg>
